<?xml version="1.0" encoding="UTF-8"?>
<svg version="1.1" xmlns="http://www.w3.org/2000/svg" width="271" height="271">
<path d="M0 0 C1.30710938 1.07894531 1.30710938 1.07894531 2.640625 2.1796875 C8.85513233 7.53636407 13.98577545 13.52026537 19 20 C19.83144531 18.73542969 19.83144531 18.73542969 20.6796875 17.4453125 C21.40414062 16.34960938 22.12859375 15.25390625 22.875 14.125 C23.59429687 13.03445312 24.31359375 11.94390625 25.0546875 10.8203125 C27 8 27 8 29 6 C31.33837891 5.77294922 31.33837891 5.77294922 34.2265625 5.8046875 C35.7734375 5.81435547 35.7734375 5.81435547 37.3515625 5.82421875 C38.43179688 5.84097656 39.51203125 5.85773437 40.625 5.875 C41.71296875 5.88402344 42.8009375 5.89304688 43.921875 5.90234375 C46.61480152 5.92596591 49.30729255 5.95890444 52 6 C52.60864258 7.80566406 52.60864258 7.80566406 53 10 C51.65444766 12.40687565 50.28923278 14.52442227 48.6875 16.75 C47.76672224 18.0875055 46.84750278 19.42608487 45.9296875 20.765625 C45.44983398 21.45849609 44.96998047 22.15136719 44.47558594 22.86523438 C42.04419061 26.3827924 39.65392159 29.92192692 37.3125 33.5 C36.86672607 34.14549805 36.42095215 34.79099609 35.96166992 35.45605469 C33.84300863 38.72516048 32.98631026 40.40586525 33.078125 44.390625 C33.38234375 45.58171875 33.6865625 46.7728125 34 48 C34.17684326 48.71027344 34.35368652 49.42054687 34.53588867 50.15234375 C35.139925 52.5271616 35.78623861 54.88772957 36.4375 57.25 C41.06629065 74.66054601 42.83624253 90.73540171 39.125 108.5625 C38.86251465 109.82936646 38.86251465 109.82936646 38.59472656 111.12182617 C37.85548921 114.5389339 37.06024838 117.82213439 35.9375 121.13671875 C34.84877 124.63845131 34.26241095 127.24543962 35.72705078 130.72949219 C37.97011044 134.9823949 40.69068631 138.90016021 43.46533203 142.81933594 C45.58704276 145.83414984 47.62200075 148.90208233 49.6418457 151.98583984 C50.61435632 153.47045934 51.59823606 154.94770673 52.59448242 156.41650391 C53.04025635 157.08858887 53.48603027 157.76067383 53.9453125 158.453125 C54.34250488 159.04254883 54.73969727 159.63197266 55.14892578 160.23925781 C56 162 56 162 56 166 C33.23265945 167.91859611 33.23265945 167.91859611 28.015625 164.82226562 C25.00068391 161.72222539 23.55636272 157.96165055 22 154 C21.34 154 20.68 154 20 154 C18.81821695 155.36965626 17.70603084 156.79950292 16.625 158.25 C-1.14812533 180.88196535 -27.33955382 197.77368521 -56.28979492 201.27709961 C-89.36645595 204.75760239 -119.98028465 198.24221532 -146.1953125 177.296875 C-147.58363281 176.15992188 -147.58363281 176.15992188 -149 175 C-149.94617188 174.28328125 -150.89234375 173.5665625 -151.8671875 172.828125 C-152.57101563 172.22484375 -153.27484375 171.6215625 -154 171 C-154 170.34 -154 169.68 -154 169 C-154.99 168.67 -155.98 168.34 -157 168 C-158.52422233 166.35018632 -159.97359886 164.63033863 -161.375 162.875 C-162.16519531 161.88628906 -162.95539063 160.89757812 -163.76953125 159.87890625 C-166.27635106 156.6433087 -168.67825626 153.37027317 -171 150 C-172.0842148 151.54104688 -173.16732521 153.08287078 -174.25 154.625 C-174.85328125 155.48351562 -175.4565625 156.34203125 -176.078125 157.2265625 C-178.11890591 159.97877541 -178.11890591 159.97877541 -179.4375 163.3125 C-182.54671777 166.57338693 -183.48426091 166.43306885 -187.859375 166.5859375 C-190.15698053 166.54609463 -192.45420832 166.47459497 -194.75 166.375 C-196.51150391 166.33439453 -196.51150391 166.33439453 -198.30859375 166.29296875 C-201.2075816 166.22226173 -204.1028647 166.12361956 -207 166 C-207.33 165.34 -207.66 164.68 -208 164 C-206.44874219 161.33548658 -204.84441674 158.803377 -203.125 156.25 C-202.1051768 154.7072242 -201.08565003 153.16425241 -200.06640625 151.62109375 C-199.55094238 150.84620605 -199.03547852 150.07131836 -198.50439453 149.27294922 C-196.32176373 145.97527106 -194.19093277 142.64530979 -192.0625 139.3125 C-190.0100628 136.10916344 -187.96324291 132.94887075 -185.7421875 129.859375 C-184.00059783 127.00098119 -183.5109452 126.1263743 -184.0625 122.9375 C-184.18753906 122.17308594 -184.31257813 121.40867188 -184.44140625 120.62109375 C-185.33332277 116.43594701 -186.31725115 112.27378537 -187.30078125 108.109375 C-191.58362001 89.06390209 -189.31021153 67.89543602 -182.671875 49.6640625 C-181.68766552 45.76155747 -182.40364701 43.1173986 -184.28759766 39.58740234 C-184.82433105 38.76191895 -185.36106445 37.93643555 -185.9140625 37.0859375 C-186.80931641 35.69568359 -186.80931641 35.69568359 -187.72265625 34.27734375 C-188.35042969 33.31957031 -188.97820312 32.36179688 -189.625 31.375 C-190.84635417 29.48697917 -192.06770833 27.59895833 -193.2890625 25.7109375 C-195.19035693 22.77238921 -197.10352026 19.84616898 -199.05761719 16.94238281 C-199.70633789 15.96366211 -200.35505859 14.98494141 -201.0234375 13.9765625 C-201.61817871 13.09307129 -202.21291992 12.20958008 -202.82568359 11.29931641 C-203.21320801 10.54054199 -203.60073242 9.78176758 -204 9 C-203.67 8.01 -203.34 7.02 -203 6 C-198.95957327 5.73766375 -194.92133519 5.57849509 -190.875 5.4375 C-189.73289063 5.36208984 -188.59078125 5.28667969 -187.4140625 5.20898438 C-179.08357414 4.99103555 -179.08357414 4.99103555 -175.93994141 7.91821289 C-174.40555316 10.21979526 -173.18616041 12.50460709 -172 15 C-171.22959025 16.20139967 -170.44063439 17.39133267 -169.625 18.5625 C-169.08875 19.366875 -168.5525 20.17125 -168 21 C-167.43152344 20.28714844 -166.86304688 19.57429688 -166.27734375 18.83984375 C-146.46313036 -5.73771977 -119.60385381 -21.69386439 -88.1875 -26.375 C-56.18248779 -29.72035149 -24.80297121 -20.57356283 0 0 Z " fill="#363737" transform="translate(209,45)"/>
<path d="M0 0 C0.95310059 0.01047363 1.90620117 0.02094727 2.88818359 0.03173828 C4.43505859 0.04140625 4.43505859 0.04140625 6.01318359 0.05126953 C7.63353516 0.07640625 7.63353516 0.07640625 9.28662109 0.10205078 C10.37458984 0.11107422 11.46255859 0.12009766 12.58349609 0.12939453 C15.27642261 0.15301669 17.96891365 0.18595522 20.66162109 0.22705078 C21.27026367 2.03271484 21.27026367 2.03271484 21.66162109 4.22705078 C20.31606875 6.63392644 18.95085387 8.75147305 17.34912109 10.97705078 C16.42834333 12.31455629 15.50912388 13.65313565 14.59130859 14.99267578 C14.11145508 15.68554688 13.63160156 16.37841797 13.13720703 17.09228516 C10.70581171 20.60984318 8.31554268 24.1489777 5.97412109 27.72705078 C5.30546021 28.69529785 5.30546021 28.69529785 4.62329102 29.68310547 C2.50462972 32.95221127 1.64793135 34.63291603 1.73974609 38.61767578 C2.04396484 39.80876953 2.34818359 40.99986328 2.66162109 42.22705078 C2.83846436 42.93732422 3.01530762 43.64759766 3.19750977 44.37939453 C3.8015461 46.75421238 4.44785971 49.11478035 5.09912109 51.47705078 C9.72791174 68.88759679 11.49786362 84.96245249 7.78662109 102.78955078 C7.52413574 104.05641724 7.52413574 104.05641724 7.25634766 105.34887695 C6.5171103 108.76598468 5.72186947 112.04918517 4.59912109 115.36376953 C3.51039109 118.86550209 2.92403205 121.4724904 4.38867188 124.95654297 C6.63173153 129.20944568 9.35230741 133.12721099 12.12695312 137.04638672 C14.24866385 140.06120062 16.28362184 143.12913311 18.3034668 146.21289062 C19.27597741 147.69751012 20.25985715 149.17475751 21.25610352 150.64355469 C21.70187744 151.31563965 22.14765137 151.98772461 22.60693359 152.68017578 C23.00412598 153.26959961 23.40131836 153.85902344 23.81054688 154.46630859 C24.66162109 156.22705078 24.66162109 156.22705078 24.66162109 160.22705078 C1.89428055 162.14564689 1.89428055 162.14564689 -3.32275391 159.04931641 C-6.337695 155.94927617 -7.78201619 152.18870133 -9.33837891 148.22705078 C-9.99837891 148.22705078 -10.65837891 148.22705078 -11.33837891 148.22705078 C-12.72969633 149.82416724 -14.05355226 151.48057762 -15.33837891 153.16455078 C-19.13336752 158.12454509 -19.13336752 158.12454509 -21.33837891 159.22705078 C-19.28419359 154.58328077 -15.98996458 150.90720613 -12.82275391 146.98095703 C-12.33291016 146.07216797 -11.84306641 145.16337891 -11.33837891 144.22705078 C-12.43834114 140.66161801 -14.19467651 137.61388323 -16.13916016 134.44580078 C-16.69845215 133.53064697 -17.25774414 132.61549316 -17.83398438 131.67260742 C-18.43355957 130.70057373 -19.03313477 129.72854004 -19.65087891 128.72705078 C-20.26592285 127.72343506 -20.8809668 126.71981934 -21.51464844 125.68579102 C-23.45097035 122.52981853 -25.3935903 119.37781207 -27.33837891 116.22705078 C-27.97533691 115.19467285 -28.61229492 114.16229492 -29.26855469 113.09863281 C-32.94979698 107.13603042 -36.63958486 101.17878047 -40.33837891 95.22705078 C-44.7054043 101.37329379 -48.91324096 107.57864083 -52.90087891 113.97705078 C-53.93820176 115.63097113 -54.97598175 117.28460483 -56.01416016 118.93798828 C-56.55250488 119.79618164 -57.09084961 120.654375 -57.64550781 121.53857422 C-59.40239615 124.32871763 -61.17104921 127.11105378 -62.94384766 129.89111328 C-63.54495361 130.83615723 -64.14605957 131.78120117 -64.76538086 132.75488281 C-65.97593158 134.64552732 -67.19707823 136.52943112 -68.42895508 138.40625 C-70.99887165 142.35100307 -73.41970102 146.12211082 -75.15869141 150.50830078 C-76.88451577 154.49764354 -77.819704 156.63810705 -81.33837891 159.22705078 C-89.22973993 160.75947986 -97.39290196 160.01655313 -105.33837891 159.22705078 C-101.74543104 152.838266 -98.00358806 146.61315263 -93.90087891 140.53955078 C-87.24723733 130.68264118 -80.89051992 120.63631639 -74.49658203 110.60986328 C-70.82502167 104.85331234 -67.14364314 99.10303908 -63.46337891 93.35205078 C-62.77937012 92.28229004 -62.09536133 91.2125293 -61.390625 90.11035156 C-60.75721191 89.12019043 -60.12379883 88.1300293 -59.47119141 87.10986328 C-58.91318848 86.2373291 -58.35518555 85.36479492 -57.78027344 84.46582031 C-56.64890937 82.70919848 -55.49738444 80.96555908 -54.33837891 79.22705078 C-54.66266902 75.4614077 -55.88300079 72.99694502 -58.00634766 69.91845703 C-58.56273926 69.10038574 -59.11913086 68.28231445 -59.69238281 67.43945312 C-60.29743652 66.56498535 -60.90249023 65.69051758 -61.52587891 64.78955078 C-62.81041508 62.89897025 -64.09290605 61.00699879 -65.37353516 59.11376953 C-66.03240723 58.14101074 -66.6912793 57.16825195 -67.37011719 56.16601562 C-70.47743195 51.52624198 -73.47605194 46.81967568 -76.46337891 42.10205078 C-77.03918701 41.19374512 -77.61499512 40.28543945 -78.20825195 39.34960938 C-81.03634618 34.88159528 -83.85509677 30.40769902 -86.67431641 25.93408203 C-87.20782715 25.08797363 -87.74133789 24.24186523 -88.29101562 23.37011719 C-89.28101402 21.79905315 -90.26974368 20.22718845 -91.25683594 18.65429688 C-94.14754674 14.06085281 -97.13264161 9.55037504 -100.21923828 5.08569336 C-101.33837891 3.22705078 -101.33837891 3.22705078 -101.33837891 1.22705078 C-93.39626026 -0.37637111 -85.12392146 -1.53461817 -77.33837891 1.22705078 C-71.44822342 6.27839492 -68.36115605 13.74549916 -65.0887146 20.63792419 C-61.95206234 27.21701604 -58.14390869 33.34003793 -54.29122925 39.51818848 C-52.47952913 42.43168658 -50.70055024 45.36446956 -48.92041016 48.29736328 C-47.97609131 49.84858887 -47.97609131 49.84858887 -47.01269531 51.43115234 C-45.62053216 53.75589023 -44.28305421 56.09672196 -42.97509766 58.46923828 C-41.62623567 61.30850689 -41.62623567 61.30850689 -39.33837891 62.22705078 C-39.07879395 61.5207251 -38.81920898 60.81439941 -38.55175781 60.08666992 C-37.24710699 57.01194657 -35.67827893 54.3152693 -33.92431641 51.47314453 C-33.24498047 50.37035156 -32.56564453 49.26755859 -31.86572266 48.13134766 C-31.51106934 47.5602124 -31.15641602 46.98907715 -30.79101562 46.40063477 C-29.73322 44.69651498 -28.68221594 42.98818548 -27.63134766 41.27978516 C-21.96570811 32.11165362 -21.96570811 32.11165362 -19.06591797 27.88769531 C-18.3437207 26.83565918 -17.62152344 25.78362305 -16.87744141 24.69970703 C-16.22211426 23.76521729 -15.56678711 22.83072754 -14.89160156 21.86791992 C-13.32725482 19.20813704 -12.83800357 17.23606146 -12.33837891 14.22705078 C-10.56103516 11.18408203 -10.56103516 11.18408203 -8.40087891 8.03955078 C-7.69060547 6.99412109 -6.98033203 5.94869141 -6.24853516 4.87158203 C-2.93566002 0.28504529 -2.93566002 0.28504529 0 0 Z " fill="#0BCB9B" transform="translate(240.33837890625,50.77294921875)"/>
<path d="M0 0 C4.04042673 -0.26233625 8.07866481 -0.42150491 12.125 -0.5625 C13.26710938 -0.63791016 14.40921875 -0.71332031 15.5859375 -0.79101562 C23.91642586 -1.00896445 23.91642586 -1.00896445 27.06005859 1.91821289 C28.59444684 4.21979526 29.81383959 6.50460709 31 9 C31.77040975 10.20139967 32.55936561 11.39133267 33.375 12.5625 C33.91125 13.366875 34.4475 14.17125 35 15 C36.65 13.02 38.3 11.04 40 9 C40 12 40 12 37.875 14.875 C37.25625 15.90625 36.6375 16.9375 36 18 C37.30643497 22.8969093 40.3913828 27.338564 42.9375 31.6875 C43.41678955 32.51241943 43.8960791 33.33733887 44.38989258 34.18725586 C48.36177121 40.99055993 52.45936408 47.71437642 56.64624023 54.38745117 C57.08653564 55.09619385 57.52683105 55.80493652 57.98046875 56.53515625 C58.37129639 57.157854 58.76212402 57.78055176 59.16479492 58.42211914 C60 60 60 60 60 62 C62.55633343 59.65023897 64.2927078 57.14254894 66.1171875 54.1953125 C66.71781006 53.22956299 67.31843262 52.26381348 67.93725586 51.26879883 C68.57671143 50.23134521 69.21616699 49.1938916 69.875 48.125 C70.53830322 47.05596436 71.20160645 45.98692871 71.88500977 44.88549805 C73.92703653 41.59260517 75.96362832 38.29639216 78 35 C79.19878528 33.06613748 80.39798131 31.13252949 81.59765625 29.19921875 C82.15582031 28.29631104 82.71398437 27.39340332 83.2890625 26.46313477 C84.38182929 24.70600073 85.48461631 22.9550561 86.59765625 21.21069336 C88.95771051 17.4858712 91.13559419 13.90462424 92.77734375 9.8046875 C94.52789353 5.84134009 95.52924443 3.62446175 99 1 C106.55394685 -0.5330994 114.38936861 0.20878648 122 1 C120.83175177 4.08398995 119.5981417 6.85514249 117.78515625 9.609375 C117.35243408 10.27195312 116.91971191 10.93453125 116.47387695 11.6171875 C116.00812256 12.32101563 115.54236816 13.02484375 115.0625 13.75 C114.0572059 15.28640222 113.05199985 16.82286205 112.046875 18.359375 C111.53576172 19.13732422 111.02464844 19.91527344 110.49804688 20.71679688 C108.25514766 24.13524431 106.03279675 27.56684471 103.8125 31 C103.37526611 31.67530762 102.93803223 32.35061523 102.48754883 33.04638672 C96.25314681 42.68545339 90.04787395 52.34477739 83.90429688 62.04199219 C82.6071689 64.05686431 81.27882996 66.05190419 79.92382812 68.02832031 C79.27349609 68.99092773 78.62316406 69.95353516 77.953125 70.9453125 C77.36176758 71.79883301 76.77041016 72.65235352 76.16113281 73.53173828 C74.7236914 76.58735912 74.91710736 77.84056103 76 81 C77.04349901 83.07721479 77.04349901 83.07721479 78.4140625 85.0546875 C78.92001953 85.82232422 79.42597656 86.58996094 79.94726562 87.38085938 C80.50091797 88.20392578 81.05457031 89.02699219 81.625 89.875 C82.81527019 91.67436935 84.00536756 93.47385304 85.1953125 95.2734375 C85.81954102 96.21155273 86.44376953 97.14966797 87.08691406 98.11621094 C90.25462777 102.89122807 93.37463573 107.69720553 96.5 112.5 C97.7628272 114.43632421 99.02584739 116.37252258 100.2890625 118.30859375 C105.38104289 126.11656263 110.46689988 133.92848082 115.53955078 141.74902344 C116.50334917 143.23451677 117.46785279 144.7195528 118.43310547 146.20410156 C119.72851147 148.19710463 121.02098617 150.19197329 122.3125 152.1875 C123.03050781 153.29480469 123.74851563 154.40210938 124.48828125 155.54296875 C126 158 126 158 126 159 C117.73338379 160.53067315 109.12055796 161.68378288 101 159 C94.59693779 153.83010083 91.32447188 145.78039756 87.79199219 138.52978516 C84.76009177 132.55768486 81.13516123 126.97159539 77.5625 121.3125 C76.28982224 119.24803016 75.02019841 117.181674 73.75390625 115.11328125 C73.14562988 114.12666504 72.53735352 113.14004883 71.91064453 112.12353516 C70.53238119 109.87034053 69.16988673 107.61122829 67.81982422 105.34130859 C67.45791489 104.73852585 67.09600555 104.1357431 66.72312927 103.51469421 C65.70383029 101.8162596 64.69144946 100.11367879 63.67944336 98.41088867 C63.12522705 97.61529541 62.57101074 96.81970215 62 96 C61.34 96 60.68 96 60 96 C58.48960482 98.17821454 57.10986648 100.3540527 55.75 102.625 C54.85926713 104.08276162 53.96726522 105.53974833 53.07421875 106.99609375 C52.58743652 107.79257324 52.1006543 108.58905273 51.59912109 109.40966797 C48.64021583 114.20264276 45.59605238 118.94156015 42.5625 123.6875 C41.37565363 125.54515879 40.18942049 127.40320955 39.00390625 129.26171875 C38.49674072 130.05537842 37.9895752 130.84903809 37.46704102 131.66674805 C36.98291748 132.43672119 36.49879395 133.20669434 36 134 C35.42886475 134.87116455 34.85772949 135.7423291 34.26928711 136.63989258 C32.67689088 138.94994345 32.67689088 138.94994345 33.6875 141.5 C34.120625 142.325 34.55375 143.15 35 144 C35.66666667 145.66666667 36.33333333 147.33333333 37 149 C34.525 146.525 34.525 146.525 32 144 C30.9157852 145.54104688 29.83267479 147.08287078 28.75 148.625 C28.14671875 149.48351562 27.5434375 150.34203125 26.921875 151.2265625 C24.88109409 153.97877541 24.88109409 153.97877541 23.5625 157.3125 C20.45328223 160.57338693 19.51573909 160.43306885 15.140625 160.5859375 C12.84301947 160.54609463 10.54579168 160.47459497 8.25 160.375 C6.48849609 160.33439453 6.48849609 160.33439453 4.69140625 160.29296875 C1.7924184 160.22226173 -1.1028647 160.12361956 -4 160 C-4.33 159.34 -4.66 158.68 -5 158 C-3.44874219 155.33548658 -1.84441674 152.803377 -0.125 150.25 C0.8948232 148.7072242 1.91434997 147.16425241 2.93359375 145.62109375 C3.44905762 144.84620605 3.96452148 144.07131836 4.49560547 143.27294922 C6.67823627 139.97527106 8.80906723 136.64530979 10.9375 133.3125 C12.9899372 130.10916344 15.03675709 126.94887075 17.2578125 123.859375 C18.99940217 121.00098119 19.4890548 120.1263743 18.9375 116.9375 C18.81246094 116.17308594 18.68742187 115.40867187 18.55859375 114.62109375 C17.66667723 110.43594701 16.68274885 106.27378537 15.69921875 102.109375 C11.41637999 83.06390209 13.68978847 61.89543602 20.328125 43.6640625 C21.31233448 39.76155747 20.59635299 37.1173986 18.71240234 33.58740234 C18.17566895 32.76191895 17.63893555 31.93643555 17.0859375 31.0859375 C16.48910156 30.15910156 15.89226563 29.23226562 15.27734375 28.27734375 C14.64957031 27.31957031 14.02179687 26.36179687 13.375 25.375 C12.15364583 23.48697917 10.93229167 21.59895833 9.7109375 19.7109375 C7.80964307 16.77238921 5.89647974 13.84616898 3.94238281 10.94238281 C3.29366211 9.96366211 2.64494141 8.98494141 1.9765625 7.9765625 C1.38182129 7.09307129 0.78708008 6.20958008 0.17431641 5.29931641 C-0.21320801 4.54054199 -0.60073242 3.78176758 -1 3 C-0.67 2.01 -0.34 1.02 0 0 Z " fill="#0ACB9B" transform="translate(6,51)"/>
<path d="M0 0 C3.03982628 3.46646857 4.3101993 7.28793102 5.625 11.625 C5.95310669 12.68654297 5.95310669 12.68654297 6.2878418 13.76953125 C7.88684605 19.14482912 8.85130627 24.37667351 9 30 C9.66 30 10.32 30 11 30 C14.66606905 44.7536925 11.44301199 60.55164611 8 75 C7.34 75 6.68 75 6 75 C5.34 77.97 4.68 80.94 4 84 C0.14076634 82.71358878 -0.37715076 81.27026475 -2.51171875 77.85546875 C-3.18783203 76.78490234 -3.86394531 75.71433594 -4.56054688 74.61132812 C-5.26989304 73.47027691 -5.97887629 72.32900002 -6.6875 71.1875 C-8.0652338 68.99275315 -9.44413844 66.79874085 -10.82421875 64.60546875 C-11.50919434 63.51540527 -12.19416992 62.4253418 -12.89990234 61.30224609 C-18.51626157 52.32963202 -18.51626157 52.32963202 -24.76269531 43.80444336 C-25.17100586 43.20897705 -25.57931641 42.61351074 -26 42 C-24.94800454 37.48486621 -22.03445271 33.62910833 -19.5625 29.75 C-19.12800537 29.06196289 -18.69351074 28.37392578 -18.24584961 27.66503906 C-16.83664491 25.43942423 -15.41967208 23.21895127 -14 21 C-13.50628906 20.22785156 -13.01257813 19.45570312 -12.50390625 18.66015625 C-11.02691321 16.35451256 -9.54597832 14.0514757 -8.0625 11.75 C-7.60238525 11.03553711 -7.14227051 10.32107422 -6.66821289 9.58496094 C-4.54374626 6.30615757 -2.40692266 3.08213199 0 0 Z " fill="#3B3E3D" transform="translate(238,88)"/>
<path d="M0 0 C3.15023616 2.93879923 5.42397434 5.97090349 7.71484375 9.61328125 C8.40126953 10.69673828 9.08769531 11.78019531 9.79492188 12.89648438 C10.50942872 14.03495916 11.22361935 15.17363246 11.9375 16.3125 C13.34070945 18.53885707 14.7456147 20.76414637 16.15234375 22.98828125 C16.81089355 24.0345166 17.46944336 25.08075195 18.14794922 26.15869141 C19.70268765 28.54388069 21.32806403 30.79183058 23.06640625 33.04296875 C25 36 25 36 24.81005859 37.87890625 C23.81987269 40.47165342 22.50315208 42.57730107 20.97265625 44.89453125 C20.3494751 45.84384521 19.72629395 46.79315918 19.08422852 47.77124023 C18.41705811 48.77485596 17.7498877 49.77847168 17.0625 50.8125 C16.38823975 51.83609619 15.71397949 52.85969238 15.01928711 53.91430664 C13.01911587 56.94707015 11.01096853 59.97438794 9 63 C8.443125 63.83950195 7.88625 64.67900391 7.3125 65.54394531 C4.55251347 69.70328726 1.78251153 73.8556946 -1 78 C-4.00617269 74.99382731 -3.59585316 72.17618402 -4 68 C-4.66 68 -5.32 68 -6 68 C-8.90428678 45.31025949 -9.51440153 24.03139508 -2 2 C-1.34 1.34 -0.68 0.68 0 0 Z " fill="#1C1D1D" transform="translate(30,91)"/>
<path d="M0 0 C2.97299147 2.76795758 5.48098404 5.20246011 7 9 C6.76464844 10.90063477 6.76464844 10.90063477 6.234375 13.06640625 C6.04149902 13.86667236 5.84862305 14.66693848 5.64990234 15.49145508 C5.02292937 17.91149539 4.37238219 20.32355053 3.7109375 22.734375 C-0.33270569 37.67182433 -1.2307424 51.67498104 1 67 C1.0633117 69.14500031 1.0866101 71.29170098 1.0625 73.4375 C1.05347656 74.48808594 1.04445313 75.53867188 1.03515625 76.62109375 C1.02355469 77.40613281 1.01195312 78.19117188 1 79 C-7.33881897 64.52969649 -3.45389973 40.45274738 0 25 C0.95434222 21.4990531 2.08644009 18.07419714 3.328125 14.6640625 C4.37538206 10.51156647 3.55527129 7.95506662 1.4375 4.3125 C0.963125 3.549375 0.48875 2.78625 0 2 C0 1.34 0 0.68 0 0 Z " fill="#C7C7C7" transform="translate(23,80)"/>
<path d="M0 0 C1.16406323 1.16406323 2.32754865 2.32870939 3.48828125 3.49609375 C4.53794602 4.5403339 5.59871848 5.57347976 6.66796875 6.59765625 C8.14814809 8.02861348 9.57767678 9.51152221 11 11 C11 11.66 11 12.32 11 13 C11.87011719 13.38478516 11.87011719 13.38478516 12.7578125 13.77734375 C15.20722028 15.11299643 16.86753726 16.62924308 18.875 18.5625 C28.06295606 26.86032567 38.40129403 32.73303079 50 37 C51.09248047 37.42539063 51.09248047 37.42539063 52.20703125 37.859375 C57.07955651 39.74303368 62.03483812 41.37942633 67 43 C67 43.33 67 43.66 67 44 C60.26515054 43.52373077 54.91516545 42.14331907 48.75 39.4375 C47.92443604 39.08107422 47.09887207 38.72464844 46.24829102 38.35742188 C35.93061021 33.78918114 26.8090739 27.9846095 18.12109375 20.76171875 C16.0183557 18.96807187 16.0183557 18.96807187 13.72265625 17.39453125 C13.15417969 16.93433594 12.58570313 16.47414062 12 16 C12 15.34 12 14.68 12 14 C11.01 13.67 10.02 13.34 9 13 C7.37090909 11.24710944 5.81595653 9.42426823 4.3125 7.5625 C3.10013672 6.07943359 3.10013672 6.07943359 1.86328125 4.56640625 C0 2 0 2 0 0 Z " fill="#DADADA" transform="translate(43,200)"/>
<path d="M0 0 C7.18586788 1.07174245 13.01795158 3.07560904 19.375 6.5625 C20.19427979 7.00360107 21.01355957 7.44470215 21.85766602 7.89916992 C30.605413 12.71486186 38.92416752 17.92238513 45 26 C41.67692289 24.51296093 39.15596733 22.58709958 36.375 20.25 C28.85560563 14.1549843 20.91571712 9.70243001 12 6 C10.74966371 5.45911005 9.49963868 4.91749973 8.25 4.375 C5.51181313 3.21653632 2.76613704 2.08969035 0 1 C0 0.67 0 0.34 0 0 Z " fill="#D6D6D6" transform="translate(168,24)"/>
<path d="M0 0 C2.97299147 2.76795758 5.48098404 5.20246011 7 9 C6.52687852 12.15414323 5.8454546 14.93775535 5 18 C4.27170786 21.01619524 3.57565247 24.03978333 2.875 27.0625 C2.51902614 28.57440662 2.16231407 30.08613971 1.8046875 31.59765625 C1.53914063 32.72042969 1.27359375 33.84320313 1 35 C0.67 35 0.34 35 0 35 C-0.59581646 27.66814745 0.72679185 21.87981109 3.22265625 14.98046875 C4.35823786 10.62645485 3.66656253 8.14648756 1.4375 4.3125 C0.963125 3.549375 0.48875 2.78625 0 2 C0 1.34 0 0.68 0 0 Z " fill="#E0E5E4" transform="translate(23,80)"/>
<path d="M0 0 C1.0209375 0.433125 1.0209375 0.433125 2.0625 0.875 C5.33271292 2.12742197 8.63067575 3.04535813 12 4 C15.00884266 4.9741548 18.00587454 5.98158998 21 7 C21 7.33 21 7.66 21 8 C14.16382674 7.55895656 8.06783896 6.32641455 2 3 C1.34 2.01 0.68 1.02 0 0 Z " fill="#C9C9C9" transform="translate(89,236)"/>
<path d="M0 0 C1.07310858 3.27185553 0.89263102 5.42947592 0.0625 8.75 C-0.13214844 9.54921875 -0.32679687 10.3484375 -0.52734375 11.171875 C-0.68332031 11.77515625 -0.83929687 12.3784375 -1 13 C-1.33 13 -1.66 13 -2 13 C-2.05416188 11.39620659 -2.09286638 9.79188594 -2.125 8.1875 C-2.14820312 7.29417969 -2.17140625 6.40085937 -2.1953125 5.48046875 C-2 3 -2 3 0 0 Z " fill="#A8A8A8" transform="translate(25,102)"/>
</svg>
